<svg xmlns="http://www.w3.org/2000/svg" xmlns:xlink="http://www.w3.org/1999/xlink" width="310" height="212.493" viewBox="0 0 310 212.493"><defs><linearGradient id="linear-gradient" x1="0.017" y1="0.541" x2="1" y2="0.537" gradientUnits="objectBoundingBox"><stop offset="0" stop-color="#0a46cb"></stop><stop offset="1" stop-color="#147af7"></stop></linearGradient><clipPath id="clip-path"><path id="Caminho_8312" data-name="Caminho 8312" d="M189.571,236.077l106.208-1.266a1.394,1.394,0,0,1,1.5,1.249,1.378,1.378,0,0,1-1.461,1.284h-.041Zm0-80.623a1.379,1.379,0,0,1,1.461-1.284h.042l106.206,1.266L191.074,156.7h-.022a1.391,1.391,0,0,1-1.481-1.249m75.14-53.617a58.251,58.251,0,0,0-27.042,13.443,51.743,51.743,0,0,0-84.458,21.809,61.033,61.033,0,0,0-64.736,58.676l62.121,1.3-62.162,1.3a61.02,61.02,0,0,0,72.684,59.547,71.242,71.242,0,0,0,93.2,12.236A59.981,59.981,0,0,0,331.028,258.7a61.06,61.06,0,0,0,64.737-42.806l-48.367.983c-.566.012-1.031-.647-1.038-1.472s.444-1.5,1.009-1.513h.029l48.654.989a60.582,60.582,0,0,0,1.884-9.2l-51.577-1.049,51.81-1.053c.167-1.837.265-3.693.265-5.574,0-1.833-.1-3.644-.254-5.436L347.4,193.6c-.566.011-1.031-.647-1.038-1.471s.444-1.5,1.009-1.513h.029l50.705,1.03a60.62,60.62,0,0,0-2.155-10.876l-49.589-1.008,48.961-1a61,61,0,0,0-64.6-41.409,58.469,58.469,0,0,0-66.006-35.519" transform="translate(-88.435 -100.647)" fill="url(#linear-gradient)"></path></clipPath></defs><g id="Grupo_1608" data-name="Grupo 1608" transform="translate(-142 -8039.552)"><g id="Grupo_1577" data-name="Grupo 1577" transform="translate(142 8039.552)"><g id="Grupo_1578" data-name="Grupo 1578" transform="translate(0 0)"><g id="Grupo_1577-2" data-name="Grupo 1577" transform="translate(0 0)" clip-path="url(#clip-path)"><rect id="Ret&#xE2;ngulo_413" data-name="Ret&#xE2;ngulo 413" width="310" height="181.548" transform="translate(0 0)" fill="url(#linear-gradient)"></rect></g></g><g id="Grupo_1579" data-name="Grupo 1579" transform="translate(91.521 74.042)"><path id="Caminho_8313" data-name="Caminho 8313" d="M231.878,200.561a19.885,19.885,0,0,1,14.572,5.809,20.145,20.145,0,0,1-14.259,34.442,19.617,19.617,0,0,1-14.391-5.836,19.186,19.186,0,0,1-5.865-14.121,20.425,20.425,0,0,1,2.672-10.238,19.738,19.738,0,0,1,17.272-10.056Zm.169,3.725a16.361,16.361,0,0,0-14.013,8.187,16.6,16.6,0,0,0-2.14,8.37,16.12,16.12,0,0,0,16.153,16.244,16.4,16.4,0,0,0,8.259-2.164A15.506,15.506,0,0,0,246.23,229a16.633,16.633,0,0,0,2.127-8.344,16.225,16.225,0,0,0-2.127-8.252,15.889,15.889,0,0,0-5.989-5.906A16.208,16.208,0,0,0,232.047,204.286Z" transform="translate(-211.935 -200.561)" fill="#fff"></path><path id="Caminho_8314" data-name="Caminho 8314" d="M291.272,201.861l17.872,38.324h-4.137l-6.028-12.609H282.47l-5.97,12.609h-4.272l18.106-38.324ZM290.789,210l-6.566,13.872h13.1Z" transform="translate(-227.547 -200.898)" fill="#fff"></path><path id="Caminho_8315" data-name="Caminho 8315" d="M329.321,201.861h3.83v38.324h-3.83Z" transform="translate(-242.331 -200.898)" fill="#fff"></path><path id="Caminho_8316" data-name="Caminho 8316" d="M340.993,232.71l3.257-1.953q3.438,6.331,7.946,6.331a7.614,7.614,0,0,0,3.622-.9,6.362,6.362,0,0,0,2.58-2.41,6.244,6.244,0,0,0,.886-3.2,6.5,6.5,0,0,0-1.3-3.778,31.2,31.2,0,0,0-6.565-6.149,33.538,33.538,0,0,1-5.966-5.236,9.577,9.577,0,0,1-2.032-5.862,8.9,8.9,0,0,1,1.2-4.559,8.553,8.553,0,0,1,3.374-3.244,9.725,9.725,0,0,1,4.728-1.185,10.077,10.077,0,0,1,5.067,1.341,17.391,17.391,0,0,1,4.99,4.937l-3.127,2.371a14.991,14.991,0,0,0-3.687-3.777,6.348,6.348,0,0,0-3.321-.912,5.26,5.26,0,0,0-3.791,1.407,4.6,4.6,0,0,0-1.472,3.465,5.9,5.9,0,0,0,.522,2.423,8.921,8.921,0,0,0,1.9,2.553q.756.73,4.95,3.83a27.861,27.861,0,0,1,6.826,6.54,10.538,10.538,0,0,1,1.85,5.757,9.772,9.772,0,0,1-3.166,7.243,10.639,10.639,0,0,1-7.7,3.074,11.291,11.291,0,0,1-6.331-1.863A17.032,17.032,0,0,1,340.993,232.71Z" transform="translate(-245.354 -200.561)" fill="#fff"></path></g></g><g id="Grupo_1600" data-name="Grupo 1600" transform="translate(159.787 8234.162)"><path id="Caminho_8358" data-name="Caminho 8358" d="M360.3,595.365h2.632l5.243,13.6h-2.7l-1.067-2.8h-5.563l-1.109,2.8h-2.7Zm1.332,3.606-1.829,4.669h3.647Z" transform="translate(-355.047 -594.764)" fill="#007cf8"></path><path id="Caminho_8359" data-name="Caminho 8359" d="M370.987,599.153h2.529v1.031a6.1,6.1,0,0,1,1.56-1.006,3.764,3.764,0,0,1,1.429-.283,3.465,3.465,0,0,1,2.545,1.045,3.582,3.582,0,0,1,.879,2.626v6.648h-2.5v-4.405a11.179,11.179,0,0,0-.161-2.392,1.639,1.639,0,0,0-.564-.9,1.58,1.58,0,0,0-.994-.31,1.869,1.869,0,0,0-1.318.512,2.741,2.741,0,0,0-.763,1.418,11.452,11.452,0,0,0-.111,2.041v4.036h-2.529Z" transform="translate(-356.127 -595.011)" fill="#007cf8"></path><path id="Caminho_8360" data-name="Caminho 8360" d="M382,599.172h2.585l2.62,6.312,2.89-6.312h2.593l-6.315,13.741h-2.612l2.073-4.431Z" transform="translate(-356.873 -595.03)" fill="#007cf8"></path><path id="Caminho_8361" data-name="Caminho 8361" d="M408.117,595h2.529V608.94h-2.529v-1.062a4.976,4.976,0,0,1-1.486,1.012,4.159,4.159,0,0,1-1.615.31,4.5,4.5,0,0,1-3.38-1.512,5.269,5.269,0,0,1-1.425-3.759,5.4,5.4,0,0,1,1.38-3.818,4.395,4.395,0,0,1,3.351-1.489,4.251,4.251,0,0,1,1.7.342,4.662,4.662,0,0,1,1.472,1.026Zm-2.66,5.955a2.559,2.559,0,0,0-1.948.827,3.3,3.3,0,0,0,.013,4.268,2.563,2.563,0,0,0,1.945.842,2.61,2.61,0,0,0,1.977-.828,3.022,3.022,0,0,0,.785-2.168,2.935,2.935,0,0,0-.785-2.126A2.641,2.641,0,0,0,405.457,600.952Z" transform="translate(-358.106 -594.738)" fill="#007cf8"></path><path id="Caminho_8362" data-name="Caminho 8362" d="M421.556,599.153h2.53v10.06h-2.53V608.15a4.976,4.976,0,0,1-1.485,1.012,4.168,4.168,0,0,1-1.616.31,4.492,4.492,0,0,1-3.379-1.512,5.266,5.266,0,0,1-1.425-3.759,5.393,5.393,0,0,1,1.38-3.819,4.4,4.4,0,0,1,3.351-1.489,4.251,4.251,0,0,1,1.7.342,4.639,4.639,0,0,1,1.472,1.026Zm-2.659,2.072a2.563,2.563,0,0,0-1.949.827,3.3,3.3,0,0,0,.014,4.267,2.56,2.56,0,0,0,1.944.842,2.609,2.609,0,0,0,1.976-.828,3.018,3.018,0,0,0,.785-2.168,2.93,2.93,0,0,0-.785-2.126A2.641,2.641,0,0,0,418.9,601.224Z" transform="translate(-359.016 -595.011)" fill="#007cf8"></path><path id="Caminho_8363" data-name="Caminho 8363" d="M427.822,595.186h2.529v3.708h1.5v2.173h-1.5v7.887h-2.529v-7.887h-1.3v-2.173h1.3Z" transform="translate(-359.888 -594.752)" fill="#007cf8"></path><path id="Caminho_8364" data-name="Caminho 8364" d="M441.1,599.153h2.53v10.06H441.1V608.15a4.974,4.974,0,0,1-1.485,1.012,4.169,4.169,0,0,1-1.616.31,4.491,4.491,0,0,1-3.378-1.512,5.266,5.266,0,0,1-1.426-3.759,5.4,5.4,0,0,1,1.379-3.819,4.4,4.4,0,0,1,3.351-1.489,4.251,4.251,0,0,1,1.7.342,4.64,4.64,0,0,1,1.472,1.026Zm-2.66,2.072a2.561,2.561,0,0,0-1.948.827,3.3,3.3,0,0,0,.014,4.267,2.56,2.56,0,0,0,1.944.842,2.61,2.61,0,0,0,1.977-.828,3.018,3.018,0,0,0,.785-2.168,2.931,2.931,0,0,0-.785-2.126A2.642,2.642,0,0,0,438.439,601.224Z" transform="translate(-360.34 -595.011)" fill="#007cf8"></path><path id="Caminho_8365" data-name="Caminho 8365" d="M448.306,607.234l1.807.906-2.289,3.9-1.26-.6Z" transform="translate(-361.246 -595.593)" fill="#007cf8"></path><path id="Caminho_8366" data-name="Caminho 8366" d="M465.93,599.153h2.53v10.06h-2.53V608.15a4.964,4.964,0,0,1-1.485,1.012,4.17,4.17,0,0,1-1.616.31,4.494,4.494,0,0,1-3.379-1.512,5.271,5.271,0,0,1-1.425-3.759,5.393,5.393,0,0,1,1.38-3.819,4.4,4.4,0,0,1,3.351-1.489,4.258,4.258,0,0,1,1.7.342,4.646,4.646,0,0,1,1.471,1.026Zm-2.659,2.072a2.563,2.563,0,0,0-1.949.827,3.3,3.3,0,0,0,.014,4.267,2.561,2.561,0,0,0,1.944.842,2.611,2.611,0,0,0,1.977-.828,3.022,3.022,0,0,0,.785-2.168,2.934,2.934,0,0,0-.785-2.126A2.645,2.645,0,0,0,463.271,601.224Z" transform="translate(-362.022 -595.011)" fill="#007cf8"></path><path id="Caminho_8367" data-name="Caminho 8367" d="M471.962,599.153h2.53v1.031a6.076,6.076,0,0,1,1.559-1.006,3.768,3.768,0,0,1,1.43-.283,3.462,3.462,0,0,1,2.544,1.045,3.582,3.582,0,0,1,.879,2.626v6.648h-2.5v-4.405a11.171,11.171,0,0,0-.161-2.392,1.638,1.638,0,0,0-.564-.9,1.58,1.58,0,0,0-.994-.31,1.865,1.865,0,0,0-1.317.512,2.727,2.727,0,0,0-.763,1.418,11.361,11.361,0,0,0-.111,2.041v4.036h-2.53Z" transform="translate(-362.966 -595.011)" fill="#007cf8"></path><path id="Caminho_8368" data-name="Caminho 8368" d="M482.979,599.172h2.585l2.619,6.312,2.89-6.312h2.593l-6.314,13.741h-2.613l2.073-4.431Z" transform="translate(-363.712 -595.03)" fill="#007cf8"></path><path id="Caminho_8369" data-name="Caminho 8369" d="M496.222,595.186h2.53v3.708h1.5v2.173h-1.5v7.887h-2.53v-7.887h-1.3v-2.173h1.3Z" transform="translate(-364.521 -594.752)" fill="#007cf8"></path><path id="Caminho_8370" data-name="Caminho 8370" d="M503.033,594.719a1.548,1.548,0,0,1,1.141.481,1.594,1.594,0,0,1,.475,1.165,1.576,1.576,0,0,1-.471,1.152,1.532,1.532,0,0,1-1.127.476,1.554,1.554,0,0,1-1.151-.486,1.622,1.622,0,0,1-.475-1.179,1.61,1.61,0,0,1,1.608-1.609Zm-1.265,4.142h2.53v10.06h-2.53Z" transform="translate(-364.961 -594.719)" fill="#007cf8"></path><path id="Caminho_8371" data-name="Caminho 8371" d="M506.952,599.153h2.53v1.156a4.325,4.325,0,0,1,1.442-1.063,4.216,4.216,0,0,1,1.729-.352,3.218,3.218,0,0,1,1.707.462,3.35,3.35,0,0,1,1.224,1.349,4.077,4.077,0,0,1,1.479-1.349,4.036,4.036,0,0,1,1.915-.462,3.547,3.547,0,0,1,1.891.5,2.886,2.886,0,0,1,1.174,1.3,6.958,6.958,0,0,1,.357,2.617v5.9h-2.549v-5.1a4.354,4.354,0,0,0-.426-2.316,1.46,1.46,0,0,0-1.279-.606,1.943,1.943,0,0,0-1.163.37,2.187,2.187,0,0,0-.764,1.021,6.343,6.343,0,0,0-.25,2.095v4.539h-2.549V604.34a6.883,6.883,0,0,0-.2-1.956,1.777,1.777,0,0,0-.6-.9,1.579,1.579,0,0,0-.967-.3,1.9,1.9,0,0,0-1.147.375,2.232,2.232,0,0,0-.771,1.049,6.467,6.467,0,0,0-.255,2.126v4.475h-2.53Z" transform="translate(-365.336 -595.011)" fill="#007cf8"></path><path id="Caminho_8372" data-name="Caminho 8372" d="M536.174,604.913h-8.127a2.7,2.7,0,0,0,.942,1.706,2.953,2.953,0,0,0,1.95.634,3.38,3.38,0,0,0,2.437-.989l2.132,1a5.031,5.031,0,0,1-1.909,1.669,5.976,5.976,0,0,1-2.641.541,5.222,5.222,0,0,1-3.864-1.494,5.074,5.074,0,0,1-1.493-3.74,5.246,5.246,0,0,1,1.488-3.823,5,5,0,0,1,3.73-1.521,5.188,5.188,0,0,1,3.874,1.521,5.49,5.49,0,0,1,1.493,4.017Zm-2.53-1.988a2.524,2.524,0,0,0-.988-1.368,2.869,2.869,0,0,0-1.713-.527,3.031,3.031,0,0,0-1.856.592,3.288,3.288,0,0,0-.929,1.3Z" transform="translate(-366.599 -595.011)" fill="#007cf8"></path><path id="Caminho_8373" data-name="Caminho 8373" d="M540.315,607.234l1.807.906-2.289,3.9-1.26-.6Z" transform="translate(-367.477 -595.593)" fill="#007cf8"></path><path id="Caminho_8374" data-name="Caminho 8374" d="M557.94,599.153h2.529v10.06H557.94V608.15a4.978,4.978,0,0,1-1.486,1.012,4.169,4.169,0,0,1-1.616.31,4.494,4.494,0,0,1-3.378-1.512,5.269,5.269,0,0,1-1.425-3.759,5.4,5.4,0,0,1,1.38-3.819,4.4,4.4,0,0,1,3.35-1.489,4.257,4.257,0,0,1,1.7.342,4.664,4.664,0,0,1,1.472,1.026Zm-2.661,2.072a2.562,2.562,0,0,0-1.948.827,3.3,3.3,0,0,0,.014,4.267,2.561,2.561,0,0,0,1.944.842,2.612,2.612,0,0,0,1.977-.828,3.022,3.022,0,0,0,.785-2.168,2.935,2.935,0,0,0-.785-2.126A2.645,2.645,0,0,0,555.279,601.224Z" transform="translate(-368.254 -595.011)" fill="#007cf8"></path><path id="Caminho_8375" data-name="Caminho 8375" d="M563.971,599.153h2.53v1.031a6.093,6.093,0,0,1,1.56-1.006,3.767,3.767,0,0,1,1.43-.283,3.463,3.463,0,0,1,2.544,1.045,3.583,3.583,0,0,1,.879,2.626v6.648h-2.5v-4.405a11.133,11.133,0,0,0-.162-2.392,1.632,1.632,0,0,0-.564-.9,1.58,1.58,0,0,0-.994-.31,1.865,1.865,0,0,0-1.317.512,2.732,2.732,0,0,0-.763,1.418,11.315,11.315,0,0,0-.112,2.041v4.036h-2.53Z" transform="translate(-369.198 -595.011)" fill="#007cf8"></path><path id="Caminho_8376" data-name="Caminho 8376" d="M574.988,599.172h2.585l2.619,6.312,2.89-6.312h2.593l-6.314,13.741h-2.613l2.073-4.431Z" transform="translate(-369.944 -595.03)" fill="#007cf8"></path><path id="Caminho_8377" data-name="Caminho 8377" d="M586.8,599.172h2.476L591.3,604.9l2.181-5.723H595l2.142,5.659,2.03-5.659h2.493l-3.68,10.06h-1.6l-2.151-5.733-2.214,5.733h-1.585Z" transform="translate(-370.744 -595.03)" fill="#007cf8"></path><path id="Caminho_8378" data-name="Caminho 8378" d="M604.289,595H606.8v4.9a5.742,5.742,0,0,1,1.491-.957,3.851,3.851,0,0,1,1.52-.319,3.427,3.427,0,0,1,2.53,1.035,3.611,3.611,0,0,1,.88,2.635v6.648H610.73v-4.41a10.884,10.884,0,0,0-.167-2.367,1.655,1.655,0,0,0-.57-.925,1.606,1.606,0,0,0-1-.305,1.878,1.878,0,0,0-1.321.509,2.7,2.7,0,0,0-.765,1.387,11.537,11.537,0,0,0-.111,2.071v4.041h-2.512Z" transform="translate(-371.929 -594.738)" fill="#007cf8"></path><path id="Caminho_8379" data-name="Caminho 8379" d="M626.563,604.913h-8.127a2.7,2.7,0,0,0,.941,1.706,2.953,2.953,0,0,0,1.95.634,3.38,3.38,0,0,0,2.437-.989l2.132,1a5.039,5.039,0,0,1-1.909,1.669,5.976,5.976,0,0,1-2.641.541,5.223,5.223,0,0,1-3.865-1.494,5.071,5.071,0,0,1-1.493-3.74,5.246,5.246,0,0,1,1.488-3.823,5,5,0,0,1,3.73-1.521,5.188,5.188,0,0,1,3.874,1.521,5.49,5.49,0,0,1,1.492,4.017Zm-2.53-1.988a2.525,2.525,0,0,0-.988-1.368,2.87,2.87,0,0,0-1.713-.527,3.035,3.035,0,0,0-1.857.592,3.3,3.3,0,0,0-.928,1.3Z" transform="translate(-372.721 -595.011)" fill="#007cf8"></path><path id="Caminho_8380" data-name="Caminho 8380" d="M628.892,599.153h2.168v1.267a2.7,2.7,0,0,1,.936-1.138,2.261,2.261,0,0,1,1.278-.388,2.38,2.38,0,0,1,1.029.259l-.788,2.173a1.747,1.747,0,0,0-.732-.222,1.158,1.158,0,0,0-.987.722,6.591,6.591,0,0,0-.4,2.83l.01.49v4.068h-2.512Z" transform="translate(-373.595 -595.011)" fill="#007cf8"></path><path id="Caminho_8381" data-name="Caminho 8381" d="M646.106,604.913h-8.127a2.7,2.7,0,0,0,.941,1.706,2.956,2.956,0,0,0,1.951.634,3.38,3.38,0,0,0,2.437-.989l2.131,1a5.028,5.028,0,0,1-1.908,1.669,5.976,5.976,0,0,1-2.641.541,5.222,5.222,0,0,1-3.864-1.494,5.07,5.07,0,0,1-1.493-3.74,5.249,5.249,0,0,1,1.487-3.823,5,5,0,0,1,3.731-1.521,5.188,5.188,0,0,1,3.874,1.521,5.49,5.49,0,0,1,1.492,4.017Zm-2.53-1.988a2.524,2.524,0,0,0-.988-1.368,2.869,2.869,0,0,0-1.713-.527,3.035,3.035,0,0,0-1.857.592,3.306,3.306,0,0,0-.928,1.3Z" transform="translate(-374.045 -595.011)" fill="#007cf8"></path><path id="Caminho_8382" data-name="Caminho 8382" d="M650.446,607.154a1.41,1.41,0,0,1,1.029.422,1.382,1.382,0,0,1,.426,1.021,1.455,1.455,0,0,1-2.91,0,1.378,1.378,0,0,1,.426-1.021A1.411,1.411,0,0,1,650.446,607.154Z" transform="translate(-374.956 -595.587)" fill="#007cf8"></path></g></g></svg>